<?xml version="1.0" encoding="UTF-8"?><svg xmlns="http://www.w3.org/2000/svg" viewBox="0 0 768 1366"><defs><style>.cls-1{fill:none;opacity:.34;stroke:#bfff00;stroke-miterlimit:10;stroke-width:13px;}.cls-2{fill:#0bff71;}.cls-3{fill:#3af084;}.cls-4{fill:#81f084;}.cls-5{opacity:.59;}</style></defs><g id="Capa_1"><rect class="cls-4" width="768" height="1366"/></g><g id="Capa_2"><g class="cls-5"><rect class="cls-3" x="85" y="66" width="592" height="1166"/></g><path class="cls-2" d="m646.77,699.28c-2.85,4-5.4,8.15-7.69,12.42-83.15,55.75-165.98,113.3-237.55,183.7-70.39,69.24-128.98,151.91-159.51,246.53-16.75,51.91-24.38,106.85-19.84,161.31.17,2.04,1.32,3.43,2.78,4.17-1.63.07-3.25.13-4.88.18-6.42.17-6.45,10.17,0,10,101.8-2.75,195.62-57.37,261.79-132.61,73.67-83.76,112.4-192.24,132.66-300.46,5.81-31.06,9.77-62.32,13.68-93.66,3.08-24.75,7.26-50.08,18.61-72.34.68-.46,1.36-.91,2.04-1.37,2.23-1.49,2.64-3.87,1.98-5.88,1.42-2.36,2.94-4.68,4.56-6.95,3.74-5.25-4.92-10.25-8.63-5.05Zm-26.36,75.28c-4.04,27.13-6.64,54.43-11.02,81.52-8.9,54.94-21.88,109.4-41.45,161.57-19.22,51.23-45.06,100.72-79.22,143.63-30.89,38.8-68.3,72.59-110.84,98.19-44.73,26.92-95.12,44.32-147.29,47.64,1.06-.79,1.73-2.07,1.59-3.87-8.05-96.65,22.87-191.99,73.27-273.62,52.43-84.93,126.13-154.32,204.82-214.71,39.3-30.16,80.05-58.35,121.12-86.02-5.43,14.66-8.67,30.19-10.98,45.67Z"/><circle class="cls-1" cx="178" cy="1061" r="144"/></g></svg>